<svg width="25" height="24" viewBox="0 0 25 24" fill="none" xmlns="http://www.w3.org/2000/svg">
<path d="M9.76873 0C8.12079 0 6.77247 1.35 6.77247 3V6H1.04963C0.86985 6 0.779963 6.12 0.779963 6.27V13.5C0.779963 14.34 1.43914 15 2.27809 15H23.2519C24.0908 15 24.75 14.34 24.75 13.5V6.27C24.75 6.09 24.6301 6 24.4803 6H18.7575V3C18.7575 1.35 17.4092 0 15.7612 0L9.76873 0ZM9.76873 3H15.7612V6H9.76873V3ZM0.779963 17.73V23.73C0.779963 23.88 0.899813 24 1.04963 24H24.4504C24.6002 24 24.72 23.88 24.72 23.73V17.73C24.2406 17.91 23.7612 18 23.2219 18H2.24813C1.7088 18 1.2294 17.88 0.75 17.73H0.779963Z" fill="#F9F9F9"/>
</svg>
