<svg width="120" height="120" viewBox="0 0 120 120" fill="none" xmlns="http://www.w3.org/2000/svg">
<g id="Group 6">
<circle id="Ellipse 1" cx="60" cy="60" r="60" fill="#D9D9D9"/>
<g id="Group">
<path id="Vector" d="M60 10C32.385 10 10 32.385 10 60C10 87.615 32.385 110 60 110C87.615 110 110 87.615 110 60C110 32.385 87.615 10 60 10Z" stroke="#333333" stroke-width="1.5" stroke-linecap="round" stroke-linejoin="round"/>
<path id="Vector_2" d="M22 91.2301C22 91.2301 33.145 77.0001 60.645 77.0001C88.145 77.0001 99.295 91.2301 99.295 91.2301M60.645 59.5001C64.6233 59.5001 68.4386 57.9198 71.2516 55.1067C74.0647 52.2937 75.645 48.4784 75.645 44.5001C75.645 40.5219 74.0647 36.7066 71.2516 33.8935C68.4386 31.0805 64.6233 29.5001 60.645 29.5001C56.6668 29.5001 52.8514 31.0805 50.0384 33.8935C47.2254 36.7066 45.645 40.5219 45.645 44.5001C45.645 48.4784 47.2254 52.2937 50.0384 55.1067C52.8514 57.9198 56.6668 59.5001 60.645 59.5001Z" stroke="#333333" stroke-width="1.5" stroke-linecap="round" stroke-linejoin="round"/>
</g>
</g>
</svg>
