<svg width="17" height="19" viewBox="0 0 17 19" fill="none" xmlns="http://www.w3.org/2000/svg">
<g id="&#240;&#159;&#166;&#134; icon &#34;trash&#34;">
<path id="Vector" d="M7.07143 0C5.775 0 4.71429 1.06071 4.71429 2.35714H2.35714C1.06071 2.35714 0 3.41786 0 4.71429H16.5C16.5 3.41786 15.4393 2.35714 14.1429 2.35714H11.7857C11.7857 1.06071 10.725 0 9.42857 0H7.07143ZM2.35714 7.07143V18.4093C2.35714 18.6686 2.54571 18.8571 2.805 18.8571H13.7186C13.9779 18.8571 14.1664 18.6686 14.1664 18.4093V7.07143H11.8093V15.3214C11.8093 15.9814 11.2907 16.5 10.6307 16.5C9.97072 16.5 9.45214 15.9814 9.45214 15.3214V7.07143H7.095V15.3214C7.095 15.9814 6.57643 16.5 5.91643 16.5C5.25643 16.5 4.73786 15.9814 4.73786 15.3214V7.07143H2.38071H2.35714Z" fill="#F2A32D"/>
</g>
</svg>
