<svg width="24" height="24" viewBox="0 0 24 24" fill="none" xmlns="http://www.w3.org/2000/svg">
<g id="mdi:email-outline">
<path id="Vector" d="M20.0577 4.67746L20.3151 4.49576H20H15.5H11.5H3H2.68493L2.94233 4.67746L11.4423 10.6775L11.5 10.7182L11.5577 10.6775L20.0577 4.67746ZM20 18.1958H20.1V18.0958V12.0958V5.50006V5.30529L19.9417 5.4188L11.4995 11.473L3.05767 5.51407L2.9 5.40277V5.59576V12.5958V18.0958V18.1958H3H11.5H20ZM19.5 3.69576C20.0221 3.69576 20.3644 3.8846 20.5806 4.19284C20.8012 4.50725 20.9 4.95932 20.9 5.50006V11.5958V17.5958C20.9 18.1389 20.8001 18.4522 20.5956 18.6361C20.3881 18.8227 20.0475 18.9001 19.5 18.9001H11.5H3.5C2.95253 18.9001 2.61189 18.8227 2.40437 18.6361C2.1999 18.4522 2.1 18.1389 2.1 17.5958V11.5958V5.50006C2.1 4.95932 2.19882 4.50725 2.41937 4.19284C2.63559 3.8846 2.97787 3.69576 3.5 3.69576H19.5Z" fill="#333333" stroke="#333333" stroke-width="0.2"/>
</g>
</svg>
